<svg width="105" height="91" viewBox="0 0 105 91" fill="none" xmlns="http://www.w3.org/2000/svg">
<path fill-rule="evenodd" clip-rule="evenodd" d="M91 45.5C91 70.629 70.629 91 45.5 91C29.1544 91 14.8219 82.3808 6.79961 69.4395C6.87534 69.3603 6.98043 69.2537 7.12034 69.117C7.57525 68.6726 8.23929 68.0643 9.09532 67.3093C10.7978 65.8077 13.1047 63.8621 15.6676 61.743C20.0107 58.1518 25.0066 54.1302 28.855 51.0669L46.5134 57.2474L49.4831 58.2867L51.4788 55.8544L67.0023 36.9352L86.182 25.1009C89.2646 31.2365 91 38.1656 91 45.5ZM7.02492 69.0125C6.94125 69.1798 6.85624 69.3181 6.78748 69.4199C6.63266 69.1699 6.48021 68.9183 6.33013 68.6651L7.02492 69.0125ZM0 45.5C0 50.9269 0.95009 56.1319 2.69301 60.9577C2.83947 60.8271 2.98931 60.6943 3.14218 60.5595C4.95216 58.9631 7.34529 56.9462 9.93244 54.807C15.1152 50.5215 21.1919 45.6503 25.2068 42.4718L27.1488 40.9344L29.4866 41.7526L46.5169 47.7133L60.5212 30.6456L60.9977 30.0648L61.637 29.6703L81.3651 17.4977C73.0373 6.84662 60.0682 0 45.5 0C20.371 0 0 20.371 0 45.5ZM104.435 7.99997L81.3631 9.00425L93.7689 28.4832L104.435 7.99997ZM78.0744 27.1599L78.0748 27.1597L75.9261 23.7858L75.9256 23.7861L78.0744 27.1599Z" fill="url(#paint0_linear_2_9)"/>
<defs>
<linearGradient id="paint0_linear_2_9" x1="4.5" y1="66" x2="84.5" y2="22.5" gradientUnits="userSpaceOnUse">
<stop stop-color="#25D4E6"/>
<stop offset="1" stop-color="#5253EB"/>
</linearGradient>
</defs>
</svg>
